<mxfile host="Electron" modified="2023-09-10T19:51:31.329Z" agent="Mozilla/5.0 (Windows NT 10.0; Win64; x64) AppleWebKit/537.36 (KHTML, like Gecko) draw.io/21.6.8 Chrome/114.0.5735.289 Electron/25.5.0 Safari/537.36" etag="CyhfLZ2eAAf_NINoxZ89" version="21.6.8" type="device">
  <diagram name="Página-1" id="R6nXG-AHGXOuCZIGub4r">
    <mxGraphModel dx="1418" dy="827" grid="1" gridSize="10" guides="1" tooltips="1" connect="1" arrows="1" fold="1" page="1" pageScale="1" pageWidth="827" pageHeight="1169" math="0" shadow="0">
      <root>
        <mxCell id="0" />
        <mxCell id="1" parent="0" />
        <mxCell id="TYY95eeGspfrt3L6opp8-5" style="edgeStyle=orthogonalEdgeStyle;rounded=0;orthogonalLoop=1;jettySize=auto;html=1;entryX=0;entryY=0.5;entryDx=0;entryDy=0;" parent="1" source="TYY95eeGspfrt3L6opp8-1" target="TYY95eeGspfrt3L6opp8-4" edge="1">
          <mxGeometry relative="1" as="geometry" />
        </mxCell>
        <mxCell id="TYY95eeGspfrt3L6opp8-1" value="Usuario &lt;br&gt;ASODI" style="shape=umlActor;verticalLabelPosition=bottom;verticalAlign=top;html=1;" parent="1" vertex="1">
          <mxGeometry x="90" y="225" width="30" height="60" as="geometry" />
        </mxCell>
        <mxCell id="TYY95eeGspfrt3L6opp8-3" value="Sistema&lt;br&gt;" style="verticalAlign=top;align=left;spacingTop=8;spacingLeft=2;spacingRight=12;shape=cube;size=10;direction=south;fontStyle=4;html=1;whiteSpace=wrap;" parent="1" vertex="1">
          <mxGeometry x="180" y="150" width="420" height="350" as="geometry" />
        </mxCell>
        <mxCell id="TYY95eeGspfrt3L6opp8-4" value="Visualizar publicaciones registradas anteriormente" style="ellipse;whiteSpace=wrap;html=1;" parent="1" vertex="1">
          <mxGeometry x="190" y="220" width="140" height="70" as="geometry" />
        </mxCell>
        <mxCell id="TYY95eeGspfrt3L6opp8-7" value="" style="endArrow=block;dashed=1;endFill=0;endSize=12;html=1;rounded=0;exitX=1;exitY=0.5;exitDx=0;exitDy=0;entryX=0;entryY=0.5;entryDx=0;entryDy=0;" parent="1" source="TYY95eeGspfrt3L6opp8-4" target="TYY95eeGspfrt3L6opp8-8" edge="1">
          <mxGeometry width="160" relative="1" as="geometry">
            <mxPoint x="340" y="330" as="sourcePoint" />
            <mxPoint x="500" y="330" as="targetPoint" />
          </mxGeometry>
        </mxCell>
        <mxCell id="TYY95eeGspfrt3L6opp8-10" value="&amp;lt;Include&amp;gt;" style="edgeLabel;html=1;align=center;verticalAlign=middle;resizable=0;points=[];" parent="TYY95eeGspfrt3L6opp8-7" vertex="1" connectable="0">
          <mxGeometry x="-0.3333" relative="1" as="geometry">
            <mxPoint x="2" as="offset" />
          </mxGeometry>
        </mxCell>
        <mxCell id="TYY95eeGspfrt3L6opp8-11" style="edgeStyle=orthogonalEdgeStyle;rounded=0;orthogonalLoop=1;jettySize=auto;html=1;" parent="1" source="TYY95eeGspfrt3L6opp8-8" target="TYY95eeGspfrt3L6opp8-9" edge="1">
          <mxGeometry relative="1" as="geometry" />
        </mxCell>
        <mxCell id="TYY95eeGspfrt3L6opp8-8" value="Gestión de publicaciones informativas" style="ellipse;whiteSpace=wrap;html=1;" parent="1" vertex="1">
          <mxGeometry x="430" y="220" width="140" height="70" as="geometry" />
        </mxCell>
        <mxCell id="TYY95eeGspfrt3L6opp8-9" value="Base de datos de publicaciones informativas" style="ellipse;whiteSpace=wrap;html=1;" parent="1" vertex="1">
          <mxGeometry x="430" y="380" width="140" height="70" as="geometry" />
        </mxCell>
      </root>
    </mxGraphModel>
  </diagram>
</mxfile>
